<?xml version="1.0" standalone="no"?>
<!DOCTYPE svg PUBLIC "-//W3C//DTD SVG 20010904//EN"
 "http://www.w3.org/TR/2001/REC-SVG-20010904/DTD/svg10.dtd">
<svg version="1.0" xmlns="http://www.w3.org/2000/svg"
 width="260.000000pt" height="260.000000pt" viewBox="0 0 260.000000 260.000000"
 preserveAspectRatio="xMidYMid meet">
<metadata>
Created by potrace 1.11, written by Peter Selinger 2001-2013
</metadata>
<g transform="translate(0.000000,260.000000) scale(0.100000,-0.100000)"
fill="#000000" stroke="none">
<path d="M92 2508 c-9 -9 -12 -224 -12 -907 0 -870 1 -897 20 -928 27 -45 54
-57 143 -63 l79 -5 1 -215 c2 -237 6 -255 62 -290 31 -19 51 -20 426 -20 525
0 489 -23 489 315 l0 215 563 0 c429 0 568 3 587 13 13 7 35 28 47 46 l23 34
0 896 c0 684 -3 900 -12 909 -17 17 -2399 17 -2416 0z m2307 -74 l31 -6 0
-114 0 -114 -1135 0 -1135 0 0 113 c0 63 3 117 7 120 8 9 2190 9 2232 1z m41
-1018 c0 -618 -2 -696 -16 -710 -14 -14 -79 -16 -570 -16 l-554 0 0 621 c0
681 1 666 -59 702 -26 15 -70 17 -429 17 l-399 0 -34 -23 c-19 -13 -39 -38
-46 -57 -9 -26 -12 -200 -12 -647 l-1 -613 -64 0 c-45 0 -69 5 -80 16 -14 14
-16 92 -16 710 l0 694 1140 0 1140 0 0 -694z m-1265 526 c7 -4 10 -313 10
-890 l0 -882 -375 0 c-279 0 -379 3 -388 12 -9 9 -12 217 -12 874 0 771 2 864
16 878 13 14 62 16 377 16 199 0 367 -4 372 -8z m32 -1319 c-1 -235 -2 -45 -2
422 0 468 1 660 2 428 2 -232 2 -614 0 -850z"/>
<path d="M240 2314 l0 -45 43 3 c42 3 42 3 45 46 l3 42 -45 0 -46 0 0 -46z"/>
<path d="M404 2346 c-3 -8 -4 -27 -2 -43 3 -25 7 -28 46 -31 l42 -3 0 45 0 46
-40 0 c-26 0 -43 -5 -46 -14z"/>
<path d="M570 2315 l0 -45 40 0 40 0 0 45 0 45 -40 0 -40 0 0 -45z"/>
<path d="M1945 1948 c-3 -7 -57 -152 -120 -321 -63 -169 -115 -310 -115 -312
0 -6 71 -27 76 -23 2 3 58 148 123 324 l120 318 -31 13 c-38 16 -47 16 -53 1z"/>
<path d="M1502 1767 c-67 -68 -122 -132 -122 -142 0 -20 236 -265 255 -265 6
0 22 11 35 25 l24 26 -107 107 -107 107 107 107 107 107 -24 26 c-13 14 -29
25 -35 25 -6 0 -66 -56 -133 -123z"/>
<path d="M2070 1865 l-24 -26 102 -102 c56 -56 102 -107 102 -112 0 -5 -46
-56 -102 -112 l-103 -103 28 -27 27 -28 130 130 c72 71 130 134 130 140 0 10
-251 265 -261 265 -3 0 -16 -11 -29 -25z"/>
<path d="M1380 1140 l0 -40 405 0 405 0 0 40 0 40 -405 0 -405 0 0 -40z"/>
<path d="M2277 1173 c-4 -3 -7 -21 -7 -40 0 -33 1 -33 45 -33 l45 0 0 40 c0
40 0 40 -38 40 -21 0 -42 -3 -45 -7z"/>
<path d="M1380 975 l0 -45 40 0 40 0 0 45 0 45 -40 0 -40 0 0 -45z"/>
<path d="M1544 1006 c-3 -8 -4 -27 -2 -43 l3 -28 405 0 405 0 0 40 0 40 -403
3 c-341 2 -403 0 -408 -12z"/>
<path d="M1380 810 l0 -40 405 0 405 0 0 40 0 40 -405 0 -405 0 0 -40z"/>
<path d="M2272 813 c3 -37 4 -38 46 -41 l42 -3 0 40 0 41 -46 0 -45 0 3 -37z"/>
<path d="M480 1782 c0 -112 8 -122 103 -122 l67 0 0 -68 c0 -40 5 -73 12 -80
7 -7 34 -12 60 -12 l48 0 0 -104 c0 -57 3 -111 6 -120 5 -14 31 -16 185 -16
l179 0 0 40 0 40 -140 0 -140 0 0 80 0 80 60 0 60 0 0 45 0 45 -125 0 -125 0
0 34 c0 28 4 35 23 38 18 2 23 10 25 46 l3 42 -105 0 -106 0 0 60 0 60 -45 0
-45 0 0 -88z"/>
<path d="M480 1132 c0 -112 8 -122 103 -122 l67 0 0 -68 c0 -40 5 -73 12 -80
7 -7 34 -12 60 -12 l48 0 0 -108 c0 -71 4 -112 12 -120 8 -8 64 -12 185 -12
l173 0 0 40 0 40 -140 0 -140 0 0 80 0 80 60 0 60 0 0 45 0 45 -123 0 -124 0
-1 34 c-1 29 3 35 21 38 19 3 22 9 22 43 l0 40 -102 3 -103 3 0 59 0 60 -45 0
-45 0 0 -88z"/>
<path d="M480 522 c0 -106 11 -122 83 -122 l47 0 0 -68 c0 -40 5 -73 12 -80 9
-9 82 -12 265 -12 l253 0 0 45 0 45 -225 0 -225 0 0 34 c0 34 1 35 43 38 42 3
42 3 42 43 l0 40 -102 3 -103 3 0 59 0 60 -45 0 -45 0 0 -88z"/>
</g>
</svg>
